<svg xmlns="http://www.w3.org/2000/svg" viewBox="0 0 512 512" width="512" height="512">
  <defs>
    <linearGradient id="bg" x1="0%" y1="0%" x2="100%" y2="100%">
      <stop offset="0%" stop-color="#120e29"/>
      <stop offset="100%" stop-color="#070a12"/>
    </linearGradient>
    <linearGradient id="flame" x1="0%" y1="100%" x2="50%" y2="0%">
      <stop offset="0%" stop-color="#7c3aed"/>
      <stop offset="50%" stop-color="#ec4899"/>
      <stop offset="100%" stop-color="#fb7185"/>
    </linearGradient>
    <filter id="glow" x="-20%" y="-20%" width="140%" height="140%">
      <feGaussianBlur stdDeviation="16" result="blur" />
      <feComposite in="SourceGraphic" in2="blur" operator="over" />
    </filter>
  </defs>
  <rect width="512" height="512" rx="128" fill="url(#bg)"/>
  <rect width="504" height="504" x="4" y="4" rx="124" fill="none" stroke="#7c3aed" stroke-width="6" opacity="0.4"/>
  <g filter="url(#glow)" transform="translate(106, 86) scale(0.6)">
    <path fill="url(#flame)" d="M250 500c138 0 250-100 250-230 0-110-80-170-130-220-30-30-50-60-50-50 0 40-20 80-50 110-30-70-90-110-140-110 20 60 0 110-30 160C80 270 0 320 0 410c0 50 112 90 250 90z"/>
    <path fill="#ffffff" opacity="0.9" d="M250 480c80 0 140-60 140-130 0-60-50-90-80-120-20-20-30-40-30-30 0 20-10 40-30 60-20-40-50-60-80-60 10 30 0 60-20 90-40 60-10 110-10 130 0 30 50 60 110 60z"/>
  </g>
</svg>
